<mxfile host="65bd71144e">
    <diagram name="Page-1" id="2ca16b54-16f6-2749-3443-fa8db7711227">
        <mxGraphModel dx="561" dy="559" grid="1" gridSize="10" guides="1" tooltips="1" connect="1" arrows="1" fold="1" page="1" pageScale="1" pageWidth="1100" pageHeight="850" background="none" math="0" shadow="0">
            <root>
                <mxCell id="0"/>
                <mxCell id="1" parent="0"/>
                <mxCell id="5" style="edgeStyle=none;html=1;entryX=0.5;entryY=0;entryDx=0;entryDy=0;fontColor=#030303;endArrow=none;endFill=0;" parent="1" source="2ed32ef02a7f4228-1" target="2" edge="1">
                    <mxGeometry relative="1" as="geometry">
                        <Array as="points">
                            <mxPoint x="270" y="141"/>
                        </Array>
                    </mxGeometry>
                </mxCell>
                <mxCell id="6" value="1" style="edgeLabel;html=1;align=center;verticalAlign=middle;resizable=0;points=[];fontColor=#FFFFFF;" parent="5" vertex="1" connectable="0">
                    <mxGeometry x="-0.291" relative="1" as="geometry">
                        <mxPoint x="267" y="-21" as="offset"/>
                    </mxGeometry>
                </mxCell>
                <mxCell id="8" value="N" style="edgeLabel;html=1;align=center;verticalAlign=middle;resizable=0;points=[];fontColor=#FFFFFF;" parent="5" vertex="1" connectable="0">
                    <mxGeometry x="0.8095" y="-2" relative="1" as="geometry">
                        <mxPoint x="382" as="offset"/>
                    </mxGeometry>
                </mxCell>
                <mxCell id="9" style="edgeStyle=none;html=1;entryX=0.5;entryY=0;entryDx=0;entryDy=0;fontColor=#FFFFFF;endArrow=none;endFill=0;" parent="1" source="2ed32ef02a7f4228-1" target="3" edge="1">
                    <mxGeometry relative="1" as="geometry">
                        <Array as="points">
                            <mxPoint x="630" y="141"/>
                        </Array>
                    </mxGeometry>
                </mxCell>
                <mxCell id="2ed32ef02a7f4228-1" value="&lt;div style=&quot;box-sizing: border-box ; width: 100% ; background: #e4e4e4 ; padding: 2px&quot;&gt;&lt;font color=&quot;#030303&quot;&gt;USER&lt;/font&gt;&lt;/div&gt;&lt;table style=&quot;width: 100% ; font-size: 1em&quot; cellpadding=&quot;2&quot; cellspacing=&quot;0&quot;&gt;&lt;tbody&gt;&lt;tr&gt;&lt;td&gt;PK&lt;/td&gt;&lt;td&gt;user_id&lt;/td&gt;&lt;/tr&gt;&lt;tr&gt;&lt;td&gt;FK1&lt;/td&gt;&lt;td&gt;name&lt;br&gt;email_address&lt;br&gt;&lt;/td&gt;&lt;/tr&gt;&lt;tr&gt;&lt;td&gt;&lt;/td&gt;&lt;td&gt;sign up's date&lt;br&gt;description&lt;br&gt;image&lt;br&gt;&lt;br&gt;&lt;/td&gt;&lt;/tr&gt;&lt;/tbody&gt;&lt;/table&gt;" style="verticalAlign=top;align=left;overflow=fill;html=1;rounded=0;shadow=0;comic=0;labelBackgroundColor=none;strokeWidth=1;fontFamily=Verdana;fontSize=12;" parent="1" vertex="1">
                    <mxGeometry x="360" y="81" width="180" height="119" as="geometry"/>
                </mxCell>
                <mxCell id="14" style="edgeStyle=none;html=1;entryX=0.5;entryY=0;entryDx=0;entryDy=0;fontColor=#FFFFFF;endArrow=none;endFill=0;" parent="1" source="2" target="13" edge="1">
                    <mxGeometry relative="1" as="geometry"/>
                </mxCell>
                <mxCell id="15" value="N" style="edgeLabel;html=1;align=center;verticalAlign=middle;resizable=0;points=[];fontColor=#FFFFFF;" parent="14" vertex="1" connectable="0">
                    <mxGeometry x="0.5604" relative="1" as="geometry">
                        <mxPoint x="-20" as="offset"/>
                    </mxGeometry>
                </mxCell>
                <mxCell id="17" style="edgeStyle=none;html=1;entryX=0;entryY=0.5;entryDx=0;entryDy=0;fontColor=#FFFFFF;endArrow=none;endFill=0;" parent="1" target="3" edge="1">
                    <mxGeometry relative="1" as="geometry">
                        <mxPoint x="360" y="290" as="sourcePoint"/>
                    </mxGeometry>
                </mxCell>
                <mxCell id="2" value="&lt;div style=&quot;box-sizing: border-box ; width: 100% ; background: #e4e4e4 ; padding: 2px&quot;&gt;&lt;font color=&quot;#030303&quot;&gt;QUESTION&lt;/font&gt;&lt;/div&gt;&lt;table style=&quot;width: 100% ; font-size: 1em&quot; cellpadding=&quot;2&quot; cellspacing=&quot;0&quot;&gt;&lt;tbody&gt;&lt;tr&gt;&lt;td&gt;PK&lt;/td&gt;&lt;td&gt;question_id&lt;/td&gt;&lt;/tr&gt;&lt;tr&gt;&lt;td&gt;FK1&lt;br&gt;&lt;br&gt;&lt;/td&gt;&lt;td&gt;user_id&lt;br&gt;title&lt;br&gt;&lt;/td&gt;&lt;/tr&gt;&lt;tr&gt;&lt;td&gt;&lt;/td&gt;&lt;td&gt;body&lt;br&gt;created&lt;br&gt;updated&lt;br&gt;votes&lt;br&gt;(tag)&lt;br&gt;&lt;br&gt;&lt;/td&gt;&lt;/tr&gt;&lt;/tbody&gt;&lt;/table&gt;" style="verticalAlign=top;align=left;overflow=fill;html=1;rounded=0;shadow=0;comic=0;labelBackgroundColor=none;strokeWidth=1;fontFamily=Verdana;fontSize=12;" parent="1" vertex="1">
                    <mxGeometry x="180" y="240" width="180" height="150" as="geometry"/>
                </mxCell>
                <mxCell id="22" style="edgeStyle=none;html=1;entryX=0.5;entryY=0;entryDx=0;entryDy=0;endArrow=none;endFill=0;" parent="1" source="3" target="21" edge="1">
                    <mxGeometry relative="1" as="geometry"/>
                </mxCell>
                <mxCell id="3" value="&lt;div style=&quot;box-sizing: border-box ; width: 100% ; background: #e4e4e4 ; padding: 2px&quot;&gt;&lt;font color=&quot;#030303&quot;&gt;ANSWER&lt;/font&gt;&lt;/div&gt;&lt;table style=&quot;width: 100% ; font-size: 1em&quot; cellpadding=&quot;2&quot; cellspacing=&quot;0&quot;&gt;&lt;tbody&gt;&lt;tr&gt;&lt;td&gt;PK&lt;/td&gt;&lt;td&gt;user_id&lt;/td&gt;&lt;/tr&gt;&lt;tr&gt;&lt;td&gt;FK1&lt;br&gt;&lt;br&gt;&lt;/td&gt;&lt;td&gt;question_id&lt;br&gt;body&lt;/td&gt;&lt;/tr&gt;&lt;tr&gt;&lt;td&gt;&lt;/td&gt;&lt;td&gt;created&lt;br&gt;votes&lt;br&gt;&lt;/td&gt;&lt;/tr&gt;&lt;/tbody&gt;&lt;/table&gt;" style="verticalAlign=top;align=left;overflow=fill;html=1;rounded=0;shadow=0;comic=0;labelBackgroundColor=none;strokeWidth=1;fontFamily=Verdana;fontSize=12;" parent="1" vertex="1">
                    <mxGeometry x="540" y="240" width="180" height="100" as="geometry"/>
                </mxCell>
                <mxCell id="10" value="1" style="edgeLabel;html=1;align=center;verticalAlign=middle;resizable=0;points=[];fontColor=#FFFFFF;" parent="1" vertex="1" connectable="0">
                    <mxGeometry x="380.0002584861584" y="269.99611039309406" as="geometry"/>
                </mxCell>
                <mxCell id="11" value="N" style="edgeLabel;html=1;align=center;verticalAlign=middle;resizable=0;points=[];fontColor=#FFFFFF;" parent="1" vertex="1" connectable="0">
                    <mxGeometry x="260" y="231.99965277844763" as="geometry">
                        <mxPoint x="-9" y="-12" as="offset"/>
                    </mxGeometry>
                </mxCell>
                <mxCell id="13" value="&lt;div style=&quot;box-sizing: border-box ; width: 100% ; background: #e4e4e4 ; padding: 2px&quot;&gt;&lt;font color=&quot;#030303&quot;&gt;SUBJECTS (tag)&amp;nbsp;&lt;/font&gt;&lt;/div&gt;&lt;table style=&quot;width: 100% ; font-size: 1em&quot; cellpadding=&quot;2&quot; cellspacing=&quot;0&quot;&gt;&lt;tbody&gt;&lt;tr&gt;&lt;td&gt;PK&lt;/td&gt;&lt;td&gt;tag_id&lt;/td&gt;&lt;/tr&gt;&lt;tr&gt;&lt;td&gt;FK1&lt;/td&gt;&lt;td&gt;quantity&lt;/td&gt;&lt;/tr&gt;&lt;/tbody&gt;&lt;/table&gt;" style="verticalAlign=top;align=left;overflow=fill;html=1;rounded=0;shadow=0;comic=0;labelBackgroundColor=none;strokeWidth=1;fontFamily=Verdana;fontSize=12;" parent="1" vertex="1">
                    <mxGeometry x="180" y="450" width="180" height="60" as="geometry"/>
                </mxCell>
                <mxCell id="16" value="N" style="edgeLabel;html=1;align=center;verticalAlign=middle;resizable=0;points=[];fontColor=#FFFFFF;" parent="1" vertex="1" connectable="0">
                    <mxGeometry x="250" y="380" as="geometry">
                        <mxPoint x="-3" y="29" as="offset"/>
                    </mxGeometry>
                </mxCell>
                <mxCell id="18" value="1" style="edgeLabel;html=1;align=center;verticalAlign=middle;resizable=0;points=[];fontColor=#FFFFFF;" parent="1" vertex="1" connectable="0">
                    <mxGeometry x="350.0002584861584" y="129.99611039309406" as="geometry"/>
                </mxCell>
                <mxCell id="20" value="N" style="edgeLabel;html=1;align=center;verticalAlign=middle;resizable=0;points=[];fontColor=#FFFFFF;" parent="1" vertex="1" connectable="0">
                    <mxGeometry x="510" y="269.9996527784476" as="geometry"/>
                </mxCell>
                <mxCell id="21" value="&lt;div style=&quot;box-sizing: border-box ; width: 100% ; background: #e4e4e4 ; padding: 2px&quot;&gt;&lt;font color=&quot;#030303&quot;&gt;COMMENTS&lt;/font&gt;&lt;/div&gt;&lt;table style=&quot;width: 100% ; font-size: 1em&quot; cellpadding=&quot;2&quot; cellspacing=&quot;0&quot;&gt;&lt;tbody&gt;&lt;tr&gt;&lt;td&gt;PK&lt;/td&gt;&lt;td&gt;comment_id&lt;/td&gt;&lt;/tr&gt;&lt;tr&gt;&lt;td&gt;FK1&lt;br&gt;&lt;br&gt;&lt;/td&gt;&lt;td&gt;answer_id&lt;br&gt;body&lt;/td&gt;&lt;/tr&gt;&lt;tr&gt;&lt;td&gt;&lt;/td&gt;&lt;td&gt;created&lt;br&gt;&lt;/td&gt;&lt;/tr&gt;&lt;/tbody&gt;&lt;/table&gt;" style="verticalAlign=top;align=left;overflow=fill;html=1;rounded=0;shadow=0;comic=0;labelBackgroundColor=none;strokeWidth=1;fontFamily=Verdana;fontSize=12;" parent="1" vertex="1">
                    <mxGeometry x="540" y="450" width="180" height="90" as="geometry"/>
                </mxCell>
                <mxCell id="23" value="1" style="edgeLabel;html=1;align=center;verticalAlign=middle;resizable=0;points=[];fontColor=#FFFFFF;" parent="1" vertex="1" connectable="0">
                    <mxGeometry x="650.0002584861584" y="359.99611039309406" as="geometry"/>
                </mxCell>
                <mxCell id="24" value="N" style="edgeLabel;html=1;align=center;verticalAlign=middle;resizable=0;points=[];fontColor=#FFFFFF;" parent="1" vertex="1" connectable="0">
                    <mxGeometry x="650" y="424.9996527784476" as="geometry"/>
                </mxCell>
                <mxCell id="26" value="" style="endArrow=none;html=1;" parent="1" edge="1">
                    <mxGeometry width="50" height="50" relative="1" as="geometry">
                        <mxPoint x="71.25" y="210" as="sourcePoint"/>
                        <mxPoint x="828.75" y="210" as="targetPoint"/>
                    </mxGeometry>
                </mxCell>
            </root>
        </mxGraphModel>
    </diagram>
    <diagram id="PqIJfWhnX1EUGkhaCW-s" name="Página-2">
        <mxGraphModel dx="982" dy="562" grid="1" gridSize="10" guides="1" tooltips="1" connect="1" arrows="1" fold="1" page="1" pageScale="1" pageWidth="827" pageHeight="1169" math="0" shadow="0">
            <root>
                <mxCell id="7dfPZgu9jbiaOfc0Uxny-0"/>
                <mxCell id="7dfPZgu9jbiaOfc0Uxny-1" parent="7dfPZgu9jbiaOfc0Uxny-0"/>
                <mxCell id="7dfPZgu9jbiaOfc0Uxny-11" style="edgeStyle=none;html=1;entryX=0;entryY=0.5;entryDx=0;entryDy=0;endArrow=none;endFill=0;" edge="1" parent="7dfPZgu9jbiaOfc0Uxny-1" source="7dfPZgu9jbiaOfc0Uxny-2" target="7dfPZgu9jbiaOfc0Uxny-7">
                    <mxGeometry relative="1" as="geometry"/>
                </mxCell>
                <mxCell id="JM7XuqE951Xiww1MJ1r4-22" style="edgeStyle=none;html=1;exitX=0.75;exitY=1;exitDx=0;exitDy=0;entryX=0;entryY=0.5;entryDx=0;entryDy=0;endArrow=none;endFill=0;" edge="1" parent="7dfPZgu9jbiaOfc0Uxny-1" source="7dfPZgu9jbiaOfc0Uxny-2" target="JM7XuqE951Xiww1MJ1r4-19">
                    <mxGeometry relative="1" as="geometry">
                        <Array as="points">
                            <mxPoint x="200" y="370"/>
                        </Array>
                    </mxGeometry>
                </mxCell>
                <mxCell id="7dfPZgu9jbiaOfc0Uxny-2" value="USER" style="rounded=0;whiteSpace=wrap;html=1;" vertex="1" parent="7dfPZgu9jbiaOfc0Uxny-1">
                    <mxGeometry x="110" y="130" width="120" height="60" as="geometry"/>
                </mxCell>
                <mxCell id="7dfPZgu9jbiaOfc0Uxny-15" style="edgeStyle=none;html=1;entryX=0;entryY=0.5;entryDx=0;entryDy=0;endArrow=none;endFill=0;" edge="1" parent="7dfPZgu9jbiaOfc0Uxny-1" source="7dfPZgu9jbiaOfc0Uxny-3" target="7dfPZgu9jbiaOfc0Uxny-10">
                    <mxGeometry relative="1" as="geometry"/>
                </mxCell>
                <mxCell id="7dfPZgu9jbiaOfc0Uxny-3" value="QUESTION" style="rounded=0;whiteSpace=wrap;html=1;" vertex="1" parent="7dfPZgu9jbiaOfc0Uxny-1">
                    <mxGeometry x="500" y="130" width="120" height="60" as="geometry"/>
                </mxCell>
                <mxCell id="7dfPZgu9jbiaOfc0Uxny-6" value="SUBJECT" style="rounded=0;whiteSpace=wrap;html=1;" vertex="1" parent="7dfPZgu9jbiaOfc0Uxny-1">
                    <mxGeometry x="670" y="280" width="120" height="60" as="geometry"/>
                </mxCell>
                <mxCell id="7dfPZgu9jbiaOfc0Uxny-14" style="edgeStyle=none;html=1;entryX=0;entryY=0.5;entryDx=0;entryDy=0;endArrow=none;endFill=0;" edge="1" parent="7dfPZgu9jbiaOfc0Uxny-1" source="7dfPZgu9jbiaOfc0Uxny-7" target="7dfPZgu9jbiaOfc0Uxny-3">
                    <mxGeometry relative="1" as="geometry"/>
                </mxCell>
                <mxCell id="JM7XuqE951Xiww1MJ1r4-12" style="edgeStyle=none;html=1;exitX=0;exitY=1;exitDx=0;exitDy=0;entryX=0;entryY=0.5;entryDx=0;entryDy=0;endArrow=none;endFill=0;startArrow=none;" edge="1" parent="7dfPZgu9jbiaOfc0Uxny-1" source="JM7XuqE951Xiww1MJ1r4-20" target="JM7XuqE951Xiww1MJ1r4-8">
                    <mxGeometry relative="1" as="geometry">
                        <Array as="points">
                            <mxPoint x="332" y="585"/>
                        </Array>
                    </mxGeometry>
                </mxCell>
                <mxCell id="7dfPZgu9jbiaOfc0Uxny-7" value="MAKE" style="rhombus;whiteSpace=wrap;html=1;" vertex="1" parent="7dfPZgu9jbiaOfc0Uxny-1">
                    <mxGeometry x="304" y="120" width="110" height="80" as="geometry"/>
                </mxCell>
                <mxCell id="7dfPZgu9jbiaOfc0Uxny-16" style="edgeStyle=none;html=1;entryX=0.5;entryY=0;entryDx=0;entryDy=0;endArrow=none;endFill=0;" edge="1" parent="7dfPZgu9jbiaOfc0Uxny-1" source="7dfPZgu9jbiaOfc0Uxny-10" target="7dfPZgu9jbiaOfc0Uxny-6">
                    <mxGeometry relative="1" as="geometry"/>
                </mxCell>
                <mxCell id="7dfPZgu9jbiaOfc0Uxny-10" value="BELONG" style="rhombus;whiteSpace=wrap;html=1;" vertex="1" parent="7dfPZgu9jbiaOfc0Uxny-1">
                    <mxGeometry x="675" y="120" width="110" height="80" as="geometry"/>
                </mxCell>
                <mxCell id="H99P0kHjfVc9DJkCsI7L-0" value="1" style="edgeLabel;html=1;align=center;verticalAlign=middle;resizable=0;points=[];fontColor=#FFFFFF;" vertex="1" connectable="0" parent="7dfPZgu9jbiaOfc0Uxny-1">
                    <mxGeometry x="330.0002584861584" y="139.99611039309406" as="geometry">
                        <mxPoint x="-83" y="10" as="offset"/>
                    </mxGeometry>
                </mxCell>
                <mxCell id="JM7XuqE951Xiww1MJ1r4-0" value="N" style="edgeLabel;html=1;align=center;verticalAlign=middle;resizable=0;points=[];fontColor=#FFFFFF;" vertex="1" connectable="0" parent="7dfPZgu9jbiaOfc0Uxny-1">
                    <mxGeometry x="490" y="159.99965277844763" as="geometry">
                        <mxPoint x="-9" y="-12" as="offset"/>
                    </mxGeometry>
                </mxCell>
                <mxCell id="JM7XuqE951Xiww1MJ1r4-1" value="N" style="edgeLabel;html=1;align=center;verticalAlign=middle;resizable=0;points=[];fontColor=#FFFFFF;" vertex="1" connectable="0" parent="7dfPZgu9jbiaOfc0Uxny-1">
                    <mxGeometry x="500" y="179.99965277844763" as="geometry">
                        <mxPoint x="208" y="85" as="offset"/>
                    </mxGeometry>
                </mxCell>
                <mxCell id="JM7XuqE951Xiww1MJ1r4-15" style="edgeStyle=none;html=1;entryX=0.5;entryY=0;entryDx=0;entryDy=0;endArrow=none;endFill=0;" edge="1" parent="7dfPZgu9jbiaOfc0Uxny-1" source="JM7XuqE951Xiww1MJ1r4-6" target="JM7XuqE951Xiww1MJ1r4-11">
                    <mxGeometry relative="1" as="geometry"/>
                </mxCell>
                <mxCell id="JM7XuqE951Xiww1MJ1r4-6" value="ANSWER" style="rounded=0;whiteSpace=wrap;html=1;" vertex="1" parent="7dfPZgu9jbiaOfc0Uxny-1">
                    <mxGeometry x="500" y="340" width="120" height="60" as="geometry"/>
                </mxCell>
                <mxCell id="JM7XuqE951Xiww1MJ1r4-8" value="COMMENTS" style="rounded=0;whiteSpace=wrap;html=1;" vertex="1" parent="7dfPZgu9jbiaOfc0Uxny-1">
                    <mxGeometry x="500" y="555" width="120" height="60" as="geometry"/>
                </mxCell>
                <mxCell id="JM7XuqE951Xiww1MJ1r4-13" style="edgeStyle=none;html=1;entryX=0.5;entryY=1;entryDx=0;entryDy=0;endArrow=none;endFill=0;" edge="1" parent="7dfPZgu9jbiaOfc0Uxny-1" source="JM7XuqE951Xiww1MJ1r4-10" target="7dfPZgu9jbiaOfc0Uxny-3">
                    <mxGeometry relative="1" as="geometry"/>
                </mxCell>
                <mxCell id="JM7XuqE951Xiww1MJ1r4-14" style="edgeStyle=none;html=1;entryX=0.5;entryY=0;entryDx=0;entryDy=0;endArrow=none;endFill=0;" edge="1" parent="7dfPZgu9jbiaOfc0Uxny-1" source="JM7XuqE951Xiww1MJ1r4-10" target="JM7XuqE951Xiww1MJ1r4-6">
                    <mxGeometry relative="1" as="geometry"/>
                </mxCell>
                <mxCell id="JM7XuqE951Xiww1MJ1r4-10" value="&lt;span&gt;RELATED TO&lt;/span&gt;" style="rhombus;whiteSpace=wrap;html=1;" vertex="1" parent="7dfPZgu9jbiaOfc0Uxny-1">
                    <mxGeometry x="505" y="230" width="110" height="80" as="geometry"/>
                </mxCell>
                <mxCell id="JM7XuqE951Xiww1MJ1r4-16" style="edgeStyle=none;html=1;entryX=0.5;entryY=0;entryDx=0;entryDy=0;endArrow=none;endFill=0;" edge="1" parent="7dfPZgu9jbiaOfc0Uxny-1" source="JM7XuqE951Xiww1MJ1r4-11" target="JM7XuqE951Xiww1MJ1r4-8">
                    <mxGeometry relative="1" as="geometry"/>
                </mxCell>
                <mxCell id="JM7XuqE951Xiww1MJ1r4-11" value="RELATED TO" style="rhombus;whiteSpace=wrap;html=1;" vertex="1" parent="7dfPZgu9jbiaOfc0Uxny-1">
                    <mxGeometry x="505" y="440" width="110" height="80" as="geometry"/>
                </mxCell>
                <mxCell id="JM7XuqE951Xiww1MJ1r4-17" value="N" style="edgeLabel;html=1;align=center;verticalAlign=middle;resizable=0;points=[];fontColor=#FFFFFF;" vertex="1" connectable="0" parent="7dfPZgu9jbiaOfc0Uxny-1">
                    <mxGeometry x="490" y="359.9996527784476" as="geometry">
                        <mxPoint x="-9" y="-12" as="offset"/>
                    </mxGeometry>
                </mxCell>
                <mxCell id="JM7XuqE951Xiww1MJ1r4-18" value="N" style="edgeLabel;html=1;align=center;verticalAlign=middle;resizable=0;points=[];fontColor=#FFFFFF;" vertex="1" connectable="0" parent="7dfPZgu9jbiaOfc0Uxny-1">
                    <mxGeometry x="510" y="179.99965277844763" as="geometry">
                        <mxPoint x="-33" y="388" as="offset"/>
                    </mxGeometry>
                </mxCell>
                <mxCell id="JM7XuqE951Xiww1MJ1r4-23" style="edgeStyle=none;html=1;exitX=1;exitY=0.5;exitDx=0;exitDy=0;entryX=0;entryY=0.5;entryDx=0;entryDy=0;endArrow=none;endFill=0;" edge="1" parent="7dfPZgu9jbiaOfc0Uxny-1" source="JM7XuqE951Xiww1MJ1r4-19" target="JM7XuqE951Xiww1MJ1r4-6">
                    <mxGeometry relative="1" as="geometry"/>
                </mxCell>
                <mxCell id="JM7XuqE951Xiww1MJ1r4-19" value="MAKE" style="rhombus;whiteSpace=wrap;html=1;" vertex="1" parent="7dfPZgu9jbiaOfc0Uxny-1">
                    <mxGeometry x="304" y="330" width="110" height="80" as="geometry"/>
                </mxCell>
                <mxCell id="JM7XuqE951Xiww1MJ1r4-20" value="MAKE" style="rhombus;whiteSpace=wrap;html=1;" vertex="1" parent="7dfPZgu9jbiaOfc0Uxny-1">
                    <mxGeometry x="290" y="545" width="110" height="80" as="geometry"/>
                </mxCell>
                <mxCell id="JM7XuqE951Xiww1MJ1r4-21" value="" style="edgeStyle=none;html=1;exitX=0.25;exitY=1;exitDx=0;exitDy=0;entryX=0;entryY=0.5;entryDx=0;entryDy=0;endArrow=none;endFill=0;" edge="1" parent="7dfPZgu9jbiaOfc0Uxny-1" source="7dfPZgu9jbiaOfc0Uxny-2" target="JM7XuqE951Xiww1MJ1r4-20">
                    <mxGeometry relative="1" as="geometry">
                        <mxPoint x="331.5" y="179.9999999999999" as="sourcePoint"/>
                        <mxPoint x="500" y="585" as="targetPoint"/>
                        <Array as="points">
                            <mxPoint x="140" y="585"/>
                        </Array>
                    </mxGeometry>
                </mxCell>
                <mxCell id="JM7XuqE951Xiww1MJ1r4-24" value="1" style="edgeLabel;html=1;align=center;verticalAlign=middle;resizable=0;points=[];fontColor=#FFFFFF;" vertex="1" connectable="0" parent="7dfPZgu9jbiaOfc0Uxny-1">
                    <mxGeometry x="304.0002584861584" y="199.99611039309406" as="geometry">
                        <mxPoint x="-83" y="10" as="offset"/>
                    </mxGeometry>
                </mxCell>
                <mxCell id="JM7XuqE951Xiww1MJ1r4-25" value="1" style="edgeLabel;html=1;align=center;verticalAlign=middle;resizable=0;points=[];fontColor=#FFFFFF;" vertex="1" connectable="0" parent="7dfPZgu9jbiaOfc0Uxny-1">
                    <mxGeometry x="240.00025848615837" y="199.99611039309406" as="geometry">
                        <mxPoint x="-83" y="10" as="offset"/>
                    </mxGeometry>
                </mxCell>
                <mxCell id="JM7XuqE951Xiww1MJ1r4-26" value="1" style="edgeLabel;html=1;align=center;verticalAlign=middle;resizable=0;points=[];fontColor=#FFFFFF;" vertex="1" connectable="0" parent="7dfPZgu9jbiaOfc0Uxny-1">
                    <mxGeometry x="505.0002584861584" y="179.99611039309406" as="geometry">
                        <mxPoint x="83" y="243" as="offset"/>
                    </mxGeometry>
                </mxCell>
                <mxCell id="JM7XuqE951Xiww1MJ1r4-28" value="N" style="edgeLabel;html=1;align=center;verticalAlign=middle;resizable=0;points=[];fontColor=#FFFFFF;" vertex="1" connectable="0" parent="7dfPZgu9jbiaOfc0Uxny-1">
                    <mxGeometry x="620" y="149.99965277844763" as="geometry">
                        <mxPoint x="-33" y="388" as="offset"/>
                    </mxGeometry>
                </mxCell>
                <mxCell id="JM7XuqE951Xiww1MJ1r4-29" value="1" style="edgeLabel;html=1;align=center;verticalAlign=middle;resizable=0;points=[];fontColor=#FFFFFF;" vertex="1" connectable="0" parent="7dfPZgu9jbiaOfc0Uxny-1">
                    <mxGeometry x="500.0002584861584" y="-30.003889606905943" as="geometry">
                        <mxPoint x="83" y="243" as="offset"/>
                    </mxGeometry>
                </mxCell>
                <mxCell id="JM7XuqE951Xiww1MJ1r4-30" value="N" style="edgeLabel;html=1;align=center;verticalAlign=middle;resizable=0;points=[];fontColor=#FFFFFF;" vertex="1" connectable="0" parent="7dfPZgu9jbiaOfc0Uxny-1">
                    <mxGeometry x="620" y="-70.00034722155237" as="geometry">
                        <mxPoint x="-33" y="388" as="offset"/>
                    </mxGeometry>
                </mxCell>
                <mxCell id="JM7XuqE951Xiww1MJ1r4-32" value="N" style="edgeLabel;html=1;align=center;verticalAlign=middle;resizable=0;points=[];fontColor=#FFFFFF;" vertex="1" connectable="0" parent="7dfPZgu9jbiaOfc0Uxny-1">
                    <mxGeometry x="430" y="59.999652778447626" as="geometry">
                        <mxPoint x="208" y="85" as="offset"/>
                    </mxGeometry>
                </mxCell>
            </root>
        </mxGraphModel>
    </diagram>
</mxfile>